STARTFONT 2.1
COMMENT
COMMENT Converted from OpenType font "AachenStd-Medium.otf" by "otf2bdf 3.0".
COMMENT
FONT -FreeType-Aachen Std Medium-Medium-R-Normal--17-120-100-100-P-71-ISO10646-1
SIZE 12 100 100
FONTBOUNDINGBOX 18 19 -1 -4
STARTPROPERTIES 19
FOUNDRY "FreeType"
FAMILY_NAME "Aachen Std Medium"
WEIGHT_NAME "Medium"
SLANT "R"
SETWIDTH_NAME "Normal"
ADD_STYLE_NAME ""
PIXEL_SIZE 17
POINT_SIZE 120
RESOLUTION_X 100
RESOLUTION_Y 100
SPACING "P"
AVERAGE_WIDTH 71
CHARSET_REGISTRY "ISO10646"
CHARSET_ENCODING "1"
FONT_ASCENT 11
FONT_DESCENT 2
COPYRIGHT "Copyright 1997 International Typeface Corporation. All rights reserved."
_OTF_FONTFILE "AachenStd-Medium.otf"
_OTF_PSNAME "AachenStd-Medium"
ENDPROPERTIES
CHARS 210
STARTCHAR 0020
ENCODING 32
SWIDTH 240 0
DWIDTH 4 0
BBX 0 0 0 0
BITMAP
ENDCHAR
STARTCHAR 0021
ENCODING 33
SWIDTH 300 0
DWIDTH 5 0
BBX 3 11 1 0
BITMAP
E0
E0
E0
E0
60
40
40
40
40
E0
60
ENDCHAR
STARTCHAR 0022
ENCODING 34
SWIDTH 420 0
DWIDTH 7 0
BBX 5 3 1 8
BITMAP
D8
D8
D0
ENDCHAR
STARTCHAR 0024
ENCODING 36
SWIDTH 540 0
DWIDTH 9 0
BBX 7 13 1 -1
BITMAP
38
7C
FE
E6
C6
F8
7C
0E
C6
E6
FE
7C
38
ENDCHAR
STARTCHAR 0025
ENCODING 37
SWIDTH 720 0
DWIDTH 12 0
BBX 10 11 1 0
BITMAP
F180
9300
9300
9600
F400
0C00
1BC0
1A40
3240
2240
63C0
ENDCHAR
STARTCHAR 0026
ENCODING 38
SWIDTH 540 0
DWIDTH 9 0
BBX 8 11 1 0
BITMAP
7E
FE
E6
E0
7F
7F
E6
C6
E6
FE
7E
ENDCHAR
STARTCHAR 0027
ENCODING 39
SWIDTH 240 0
DWIDTH 4 0
BBX 2 3 1 8
BITMAP
C0
C0
C0
ENDCHAR
STARTCHAR 0028
ENCODING 40
SWIDTH 360 0
DWIDTH 6 0
BBX 5 15 1 -2
BITMAP
10
30
30
60
60
E0
E0
E0
E0
60
60
70
30
18
10
ENDCHAR
STARTCHAR 0029
ENCODING 41
SWIDTH 360 0
DWIDTH 6 0
BBX 5 14 0 -2
BITMAP
40
60
60
70
30
30
38
38
30
30
30
60
60
C0
ENDCHAR
STARTCHAR 002A
ENCODING 42
SWIDTH 300 0
DWIDTH 5 0
BBX 3 3 1 8
BITMAP
C0
E0
C0
ENDCHAR
STARTCHAR 002B
ENCODING 43
SWIDTH 540 0
DWIDTH 9 0
BBX 7 8 1 1
BITMAP
10
10
10
FE
FE
10
10
10
ENDCHAR
STARTCHAR 002C
ENCODING 44
SWIDTH 240 0
DWIDTH 4 0
BBX 2 3 1 -1
BITMAP
C0
C0
40
ENDCHAR
STARTCHAR 002D
ENCODING 45
SWIDTH 360 0
DWIDTH 6 0
BBX 4 2 1 3
BITMAP
F0
F0
ENDCHAR
STARTCHAR 002E
ENCODING 46
SWIDTH 240 0
DWIDTH 4 0
BBX 2 2 1 0
BITMAP
C0
C0
ENDCHAR
STARTCHAR 002F
ENCODING 47
SWIDTH 480 0
DWIDTH 8 0
BBX 8 13 0 -1
BITMAP
03
07
06
0E
0C
0C
18
18
30
30
60
60
C0
ENDCHAR
STARTCHAR 0030
ENCODING 48
SWIDTH 540 0
DWIDTH 9 0
BBX 7 11 1 0
BITMAP
7C
FE
EE
C6
C6
C6
C6
C6
EE
FE
7C
ENDCHAR
STARTCHAR 0031
ENCODING 49
SWIDTH 300 0
DWIDTH 5 0
BBX 3 11 1 0
BITMAP
E0
E0
E0
E0
E0
E0
E0
E0
E0
E0
E0
ENDCHAR
STARTCHAR 0032
ENCODING 50
SWIDTH 540 0
DWIDTH 9 0
BBX 7 11 1 0
BITMAP
7C
FE
CE
CE
1E
3C
F0
E0
CE
FE
FE
ENDCHAR
STARTCHAR 0033
ENCODING 51
SWIDTH 540 0
DWIDTH 9 0
BBX 8 11 0 0
BITMAP
3E
7F
67
07
3E
3E
07
E7
E7
FF
7E
ENDCHAR
STARTCHAR 0034
ENCODING 52
SWIDTH 540 0
DWIDTH 9 0
BBX 8 11 0 0
BITMAP
0E
1E
1E
36
76
66
FF
FF
06
0F
0F
ENDCHAR
STARTCHAR 0035
ENCODING 53
SWIDTH 540 0
DWIDTH 9 0
BBX 7 11 1 0
BITMAP
FE
FE
C6
C0
FC
FE
06
C6
EE
FE
7C
ENDCHAR
STARTCHAR 0036
ENCODING 54
SWIDTH 540 0
DWIDTH 9 0
BBX 7 11 1 0
BITMAP
7C
FE
E6
C0
FC
FE
C6
C6
EE
FE
7C
ENDCHAR
STARTCHAR 0037
ENCODING 55
SWIDTH 480 0
DWIDTH 8 0
BBX 8 11 0 0
BITMAP
FF
FF
E7
EE
0E
0C
1C
1C
38
38
70
ENDCHAR
STARTCHAR 0038
ENCODING 56
SWIDTH 540 0
DWIDTH 9 0
BBX 7 11 1 0
BITMAP
7C
FE
EE
C6
FE
7E
C6
C6
E6
FE
7C
ENDCHAR
STARTCHAR 0039
ENCODING 57
SWIDTH 540 0
DWIDTH 9 0
BBX 7 11 1 0
BITMAP
7C
FE
EE
C6
EE
FE
7E
06
EE
FE
7C
ENDCHAR
STARTCHAR 003A
ENCODING 58
SWIDTH 240 0
DWIDTH 4 0
BBX 2 9 1 0
BITMAP
C0
C0
00
00
00
00
00
C0
C0
ENDCHAR
STARTCHAR 003B
ENCODING 59
SWIDTH 240 0
DWIDTH 4 0
BBX 2 10 1 -1
BITMAP
C0
C0
00
00
00
00
00
C0
C0
C0
ENDCHAR
STARTCHAR 003C
ENCODING 60
SWIDTH 540 0
DWIDTH 9 0
BBX 7 8 1 1
BITMAP
02
0E
3C
E0
E0
3C
0E
02
ENDCHAR
STARTCHAR 003D
ENCODING 61
SWIDTH 540 0
DWIDTH 9 0
BBX 7 6 1 2
BITMAP
FE
FE
00
00
FE
FE
ENDCHAR
STARTCHAR 003E
ENCODING 62
SWIDTH 540 0
DWIDTH 9 0
BBX 7 8 1 1
BITMAP
80
E0
7C
0E
0E
7C
E0
80
ENDCHAR
STARTCHAR 003F
ENCODING 63
SWIDTH 540 0
DWIDTH 9 0
BBX 7 11 1 0
BITMAP
7C
FE
CE
CE
1E
3C
70
70
20
70
30
ENDCHAR
STARTCHAR 0041
ENCODING 65
SWIDTH 540 0
DWIDTH 9 0
BBX 9 11 0 0
BITMAP
3C00
3E00
3E00
3E00
3600
7600
7F00
7F00
6700
F780
F780
ENDCHAR
STARTCHAR 0042
ENCODING 66
SWIDTH 540 0
DWIDTH 9 0
BBX 8 11 1 0
BITMAP
FC
FE
E7
E7
FE
FE
E7
E7
E7
FF
FE
ENDCHAR
STARTCHAR 0043
ENCODING 67
SWIDTH 540 0
DWIDTH 9 0
BBX 7 11 1 0
BITMAP
7C
FE
EE
C6
C0
C0
C0
C6
EE
FE
7C
ENDCHAR
STARTCHAR 0044
ENCODING 68
SWIDTH 540 0
DWIDTH 9 0
BBX 8 11 1 0
BITMAP
FC
FE
E6
E7
E7
E7
E7
E7
E6
FE
FC
ENDCHAR
STARTCHAR 0045
ENCODING 69
SWIDTH 540 0
DWIDTH 9 0
BBX 7 11 1 0
BITMAP
FE
FE
E6
E0
FC
FC
E0
E6
E6
FE
FE
ENDCHAR
STARTCHAR 0046
ENCODING 70
SWIDTH 540 0
DWIDTH 9 0
BBX 7 11 1 0
BITMAP
FE
FE
E6
E0
FC
FC
E0
E0
E0
E0
E0
ENDCHAR
STARTCHAR 0047
ENCODING 71
SWIDTH 540 0
DWIDTH 9 0
BBX 7 11 1 0
BITMAP
7C
FE
EE
C6
C0
CE
CE
C6
EE
FE
7C
ENDCHAR
STARTCHAR 0048
ENCODING 72
SWIDTH 600 0
DWIDTH 10 0
BBX 8 11 1 0
BITMAP
E7
E7
E7
E7
FF
FF
E7
E7
E7
E7
E7
ENDCHAR
STARTCHAR 0049
ENCODING 73
SWIDTH 300 0
DWIDTH 5 0
BBX 3 11 1 0
BITMAP
E0
E0
E0
E0
E0
E0
E0
E0
E0
E0
E0
ENDCHAR
STARTCHAR 004A
ENCODING 74
SWIDTH 300 0
DWIDTH 5 0
BBX 4 11 0 0
BITMAP
70
70
70
70
70
70
70
70
70
F0
E0
ENDCHAR
STARTCHAR 004B
ENCODING 75
SWIDTH 540 0
DWIDTH 9 0
BBX 8 11 1 0
BITMAP
EF
EF
EE
EC
F8
FC
FC
EE
EE
EF
EF
ENDCHAR
STARTCHAR 004C
ENCODING 76
SWIDTH 540 0
DWIDTH 9 0
BBX 7 11 1 0
BITMAP
E0
E0
E0
E0
E0
E0
E6
E6
E6
FE
FE
ENDCHAR
STARTCHAR 004D
ENCODING 77
SWIDTH 720 0
DWIDTH 12 0
BBX 10 11 1 0
BITMAP
F3C0
F3C0
F3C0
FFC0
FFC0
DFC0
DDC0
DDC0
DDC0
EDC0
E9C0
ENDCHAR
STARTCHAR 004E
ENCODING 78
SWIDTH 600 0
DWIDTH 10 0
BBX 8 11 1 0
BITMAP
E7
E7
F7
F7
FF
DF
DF
CF
CF
E7
E7
ENDCHAR
STARTCHAR 004F
ENCODING 79
SWIDTH 540 0
DWIDTH 9 0
BBX 7 11 1 0
BITMAP
7C
FE
EE
C6
C6
C6
C6
C6
EE
FE
7C
ENDCHAR
STARTCHAR 0050
ENCODING 80
SWIDTH 540 0
DWIDTH 9 0
BBX 8 11 1 0
BITMAP
FC
FE
EF
E7
E7
FE
FE
E0
E0
E0
E0
ENDCHAR
STARTCHAR 0051
ENCODING 81
SWIDTH 540 0
DWIDTH 9 0
BBX 7 12 1 -1
BITMAP
7C
FE
EE
C6
C6
C6
C6
C6
EE
FE
7E
06
ENDCHAR
STARTCHAR 0052
ENCODING 82
SWIDTH 540 0
DWIDTH 9 0
BBX 8 11 1 0
BITMAP
FC
FE
E7
E7
E6
FE
FE
E6
E6
E7
E7
ENDCHAR
STARTCHAR 0053
ENCODING 83
SWIDTH 540 0
DWIDTH 9 0
BBX 7 11 1 0
BITMAP
7C
FE
CE
C6
F8
7E
0E
C6
EE
FE
7C
ENDCHAR
STARTCHAR 0054
ENCODING 84
SWIDTH 540 0
DWIDTH 9 0
BBX 9 11 0 0
BITMAP
FF80
FF80
FD80
DD80
1C00
1C00
1C00
1C00
1C00
1E00
1E00
ENDCHAR
STARTCHAR 0055
ENCODING 85
SWIDTH 540 0
DWIDTH 9 0
BBX 9 11 0 0
BITMAP
F780
F780
7300
7300
7300
7300
7300
7300
7300
7F00
3E00
ENDCHAR
STARTCHAR 0056
ENCODING 86
SWIDTH 540 0
DWIDTH 9 0
BBX 9 11 0 0
BITMAP
F780
F780
6300
7300
7700
7600
3600
3E00
3E00
3E00
3E00
ENDCHAR
STARTCHAR 0057
ENCODING 87
SWIDTH 780 0
DWIDTH 13 0
BBX 13 11 0 0
BITMAP
F778
F778
6730
7730
77F0
77E0
3DE0
3DE0
3DE0
3DE0
3DE0
ENDCHAR
STARTCHAR 0058
ENCODING 88
SWIDTH 480 0
DWIDTH 8 0
BBX 8 11 0 0
BITMAP
77
77
76
3E
3C
3C
3C
7E
66
E7
E7
ENDCHAR
STARTCHAR 0059
ENCODING 89
SWIDTH 540 0
DWIDTH 9 0
BBX 8 11 0 0
BITMAP
F7
F7
77
76
3E
3C
1C
1C
1C
3C
3C
ENDCHAR
STARTCHAR 005A
ENCODING 90
SWIDTH 480 0
DWIDTH 8 0
BBX 8 11 0 0
BITMAP
7F
7F
66
6E
1C
1C
38
3B
73
FF
FF
ENDCHAR
STARTCHAR 005B
ENCODING 91
SWIDTH 360 0
DWIDTH 6 0
BBX 3 13 2 -1
BITMAP
E0
C0
C0
C0
C0
C0
C0
C0
C0
C0
C0
C0
E0
ENDCHAR
STARTCHAR 005C
ENCODING 92
SWIDTH 480 0
DWIDTH 8 0
BBX 8 13 0 -1
BITMAP
C0
60
60
30
30
18
18
0C
0C
06
06
03
03
ENDCHAR
STARTCHAR 005D
ENCODING 93
SWIDTH 360 0
DWIDTH 6 0
BBX 3 13 1 -1
BITMAP
E0
60
60
60
60
60
60
60
60
60
60
60
E0
ENDCHAR
STARTCHAR 005E
ENCODING 94
SWIDTH 540 0
DWIDTH 9 0
BBX 9 7 0 5
BITMAP
1C00
1C00
3600
3600
6300
6300
E380
ENDCHAR
STARTCHAR 005F
ENCODING 95
SWIDTH 480 0
DWIDTH 8 0
BBX 8 2 0 -4
BITMAP
FF
FF
ENDCHAR
STARTCHAR 0060
ENCODING 96
SWIDTH 300 0
DWIDTH 5 0
BBX 2 2 1 9
BITMAP
C0
40
ENDCHAR
STARTCHAR 0061
ENCODING 97
SWIDTH 480 0
DWIDTH 8 0
BBX 8 9 0 0
BITMAP
3C
7E
66
0E
3E
76
E6
7F
7F
ENDCHAR
STARTCHAR 0062
ENCODING 98
SWIDTH 480 0
DWIDTH 8 0
BBX 8 11 0 0
BITMAP
E0
60
7E
7F
67
67
67
67
67
7F
3E
ENDCHAR
STARTCHAR 0063
ENCODING 99
SWIDTH 480 0
DWIDTH 8 0
BBX 6 9 1 0
BITMAP
78
FC
CC
C0
C0
CC
CC
FC
78
ENDCHAR
STARTCHAR 0064
ENCODING 100
SWIDTH 480 0
DWIDTH 8 0
BBX 7 11 1 0
BITMAP
0C
0C
FC
FC
CC
CC
CC
CC
CC
FE
FE
ENDCHAR
STARTCHAR 0065
ENCODING 101
SWIDTH 480 0
DWIDTH 8 0
BBX 6 9 1 0
BITMAP
78
FC
CC
CC
FC
C0
CC
FC
78
ENDCHAR
STARTCHAR 0066
ENCODING 102
SWIDTH 240 0
DWIDTH 4 0
BBX 4 11 0 0
BITMAP
30
70
F0
F0
60
60
60
60
60
F0
F0
ENDCHAR
STARTCHAR 0067
ENCODING 103
SWIDTH 480 0
DWIDTH 8 0
BBX 7 12 1 -3
BITMAP
FE
FE
CC
CC
CC
CC
CC
FC
6C
CC
FC
78
ENDCHAR
STARTCHAR 0068
ENCODING 104
SWIDTH 540 0
DWIDTH 9 0
BBX 8 11 0 0
BITMAP
E0
60
7E
7F
67
67
67
67
67
F7
F7
ENDCHAR
STARTCHAR 0069
ENCODING 105
SWIDTH 240 0
DWIDTH 4 0
BBX 4 11 0 0
BITMAP
60
60
20
E0
E0
60
60
60
60
F0
F0
ENDCHAR
STARTCHAR 006A
ENCODING 106
SWIDTH 240 0
DWIDTH 4 0
BBX 3 14 0 -3
BITMAP
60
60
20
E0
E0
60
60
60
60
60
60
60
E0
E0
ENDCHAR
STARTCHAR 006B
ENCODING 107
SWIDTH 480 0
DWIDTH 8 0
BBX 8 11 0 0
BITMAP
E0
E0
60
67
6E
7C
7C
7C
6E
F7
F7
ENDCHAR
STARTCHAR 006C
ENCODING 108
SWIDTH 240 0
DWIDTH 4 0
BBX 4 11 0 0
BITMAP
E0
E0
60
60
60
60
60
60
60
F0
F0
ENDCHAR
STARTCHAR 006D
ENCODING 109
SWIDTH 780 0
DWIDTH 13 0
BBX 12 9 0 0
BITMAP
FFE0
FFF0
6770
6770
6770
6770
6770
F770
F770
ENDCHAR
STARTCHAR 006E
ENCODING 110
SWIDTH 540 0
DWIDTH 9 0
BBX 8 9 0 0
BITMAP
FE
FF
67
67
67
67
67
F7
F3
ENDCHAR
STARTCHAR 006F
ENCODING 111
SWIDTH 480 0
DWIDTH 8 0
BBX 6 9 1 0
BITMAP
78
FC
CC
CC
CC
CC
CC
FC
78
ENDCHAR
STARTCHAR 0070
ENCODING 112
SWIDTH 480 0
DWIDTH 8 0
BBX 8 12 0 -3
BITMAP
FE
FF
67
67
67
67
67
7F
7E
60
F0
F0
ENDCHAR
STARTCHAR 0071
ENCODING 113
SWIDTH 480 0
DWIDTH 8 0
BBX 7 12 1 -3
BITMAP
FC
FC
CC
CC
CC
CC
CC
FC
FC
0C
0E
0E
ENDCHAR
STARTCHAR 0072
ENCODING 114
SWIDTH 300 0
DWIDTH 5 0
BBX 5 9 0 0
BITMAP
F8
F8
70
60
60
60
60
F0
F0
ENDCHAR
STARTCHAR 0073
ENCODING 115
SWIDTH 420 0
DWIDTH 7 0
BBX 7 9 0 0
BITMAP
3C
7E
E6
70
7C
0E
EE
FE
7C
ENDCHAR
STARTCHAR 0074
ENCODING 116
SWIDTH 240 0
DWIDTH 4 0
BBX 4 11 0 0
BITMAP
60
60
F0
F0
60
60
60
60
60
70
30
ENDCHAR
STARTCHAR 0075
ENCODING 117
SWIDTH 540 0
DWIDTH 9 0
BBX 8 9 0 0
BITMAP
E7
E7
67
67
67
67
67
7F
7F
ENDCHAR
STARTCHAR 0076
ENCODING 118
SWIDTH 480 0
DWIDTH 8 0
BBX 8 9 0 0
BITMAP
EF
EF
66
66
7C
7C
3C
3C
38
ENDCHAR
STARTCHAR 0077
ENCODING 119
SWIDTH 660 0
DWIDTH 11 0
BBX 11 9 0 0
BITMAP
E4E0
E6E0
6EC0
6EC0
6EC0
7BC0
3B80
3B80
3B80
ENDCHAR
STARTCHAR 0078
ENCODING 120
SWIDTH 420 0
DWIDTH 7 0
BBX 7 9 0 0
BITMAP
E6
E6
7C
38
38
3C
6C
EE
EE
ENDCHAR
STARTCHAR 0079
ENCODING 121
SWIDTH 480 0
DWIDTH 8 0
BBX 7 12 0 -3
BITMAP
EE
EE
66
66
7C
3C
3C
3C
38
18
38
30
ENDCHAR
STARTCHAR 007A
ENCODING 122
SWIDTH 480 0
DWIDTH 8 0
BBX 7 9 0 0
BITMAP
FE
FE
CE
1C
38
38
76
FE
FE
ENDCHAR
STARTCHAR 007C
ENCODING 124
SWIDTH 180 0
DWIDTH 3 0
BBX 1 17 1 -4
BITMAP
80
80
80
80
80
80
80
80
80
80
80
80
80
80
80
80
80
ENDCHAR
STARTCHAR 007E
ENCODING 126
SWIDTH 540 0
DWIDTH 9 0
BBX 9 3 0 3
BITMAP
7900
FF80
4600
ENDCHAR
STARTCHAR 00A0
ENCODING 160
SWIDTH 240 0
DWIDTH 4 0
BBX 0 0 0 0
BITMAP
ENDCHAR
STARTCHAR 00A1
ENCODING 161
SWIDTH 300 0
DWIDTH 5 0
BBX 3 11 1 0
BITMAP
60
E0
40
40
40
40
60
E0
E0
E0
E0
ENDCHAR
STARTCHAR 00A2
ENCODING 162
SWIDTH 480 0
DWIDTH 8 0
BBX 6 10 1 1
BITMAP
30
7C
FC
CC
C0
C0
CC
CC
FC
38
ENDCHAR
STARTCHAR 00A3
ENCODING 163
SWIDTH 540 0
DWIDTH 9 0
BBX 8 11 1 0
BITMAP
3E
7F
E7
E0
FC
FC
E0
E0
E7
FF
FF
ENDCHAR
STARTCHAR 00A5
ENCODING 165
SWIDTH 540 0
DWIDTH 9 0
BBX 8 11 1 0
BITMAP
E7
E7
E6
7E
FF
3C
FF
38
38
3C
3C
ENDCHAR
STARTCHAR 00A6
ENCODING 166
SWIDTH 180 0
DWIDTH 3 0
BBX 1 17 1 -4
BITMAP
80
80
80
80
80
80
80
00
00
80
80
80
80
80
80
80
80
ENDCHAR
STARTCHAR 00A8
ENCODING 168
SWIDTH 420 0
DWIDTH 7 0
BBX 5 2 1 9
BITMAP
D8
D8
ENDCHAR
STARTCHAR 00AB
ENCODING 171
SWIDTH 300 0
DWIDTH 5 0
BBX 4 4 1 2
BITMAP
E0
A0
A0
F0
ENDCHAR
STARTCHAR 00AC
ENCODING 172
SWIDTH 540 0
DWIDTH 9 0
BBX 7 5 1 2
BITMAP
FE
FE
06
06
06
ENDCHAR
STARTCHAR 00AD
ENCODING 173
SWIDTH 360 0
DWIDTH 6 0
BBX 4 2 1 3
BITMAP
F0
F0
ENDCHAR
STARTCHAR 00B1
ENCODING 177
SWIDTH 540 0
DWIDTH 9 0
BBX 7 11 1 0
BITMAP
10
10
10
FE
FE
10
10
10
00
FE
FE
ENDCHAR
STARTCHAR 00B4
ENCODING 180
SWIDTH 300 0
DWIDTH 5 0
BBX 2 2 1 9
BITMAP
40
C0
ENDCHAR
STARTCHAR 00B5
ENCODING 181
SWIDTH 540 0
DWIDTH 9 0
BBX 8 11 0 -3
BITMAP
E6
E6
E6
E6
E6
E6
E6
FF
E0
E0
E0
ENDCHAR
STARTCHAR 00B7
ENCODING 183
SWIDTH 240 0
DWIDTH 4 0
BBX 2 2 1 5
BITMAP
C0
C0
ENDCHAR
STARTCHAR 00BB
ENCODING 187
SWIDTH 300 0
DWIDTH 5 0
BBX 4 4 1 2
BITMAP
A0
70
E0
A0
ENDCHAR
STARTCHAR 00BF
ENCODING 191
SWIDTH 540 0
DWIDTH 9 0
BBX 7 11 1 0
BITMAP
18
1C
08
1C
1C
78
F0
C6
CE
FE
7C
ENDCHAR
STARTCHAR 00C0
ENCODING 192
SWIDTH 540 0
DWIDTH 9 0
BBX 9 14 0 0
BITMAP
1000
0800
0000
3C00
3E00
3E00
3E00
3600
7600
7F00
7F00
6700
F780
F780
ENDCHAR
STARTCHAR 00C1
ENCODING 193
SWIDTH 540 0
DWIDTH 9 0
BBX 9 14 0 0
BITMAP
0C00
0800
0000
3C00
3E00
3E00
3E00
3600
7600
7F00
7F00
6700
F780
F780
ENDCHAR
STARTCHAR 00C2
ENCODING 194
SWIDTH 540 0
DWIDTH 9 0
BBX 9 14 0 0
BITMAP
1C00
1400
0000
3C00
3E00
3E00
3E00
3600
7600
7F00
7F00
6700
F780
F780
ENDCHAR
STARTCHAR 00C3
ENCODING 195
SWIDTH 540 0
DWIDTH 9 0
BBX 9 14 0 0
BITMAP
3E00
2400
0000
3C00
3E00
3E00
3E00
3600
7600
7F00
7F00
6700
F780
F780
ENDCHAR
STARTCHAR 00C4
ENCODING 196
SWIDTH 540 0
DWIDTH 9 0
BBX 9 14 0 0
BITMAP
3600
3600
0000
3C00
3E00
3E00
3E00
3600
7600
7F00
7F00
6700
F780
F780
ENDCHAR
STARTCHAR 00C5
ENCODING 197
SWIDTH 540 0
DWIDTH 9 0
BBX 9 15 0 0
BITMAP
0800
1400
1800
0000
3C00
3E00
3E00
3E00
3600
7600
7F00
7F00
6700
F780
F780
ENDCHAR
STARTCHAR 00C6
ENCODING 198
SWIDTH 840 0
DWIDTH 14 0
BBX 13 11 0 0
BITMAP
0FF8
0FF8
1F38
1B00
1BE0
33E0
3F00
7F18
6338
F7F8
F7F8
ENDCHAR
STARTCHAR 00C7
ENCODING 199
SWIDTH 540 0
DWIDTH 9 0
BBX 7 14 1 -3
BITMAP
7C
FE
EE
C6
C0
C0
C0
C6
EE
FE
7C
10
08
18
ENDCHAR
STARTCHAR 00C8
ENCODING 200
SWIDTH 540 0
DWIDTH 9 0
BBX 7 14 1 0
BITMAP
30
10
00
FE
FE
E6
E0
FC
FC
E0
E6
E6
FE
FE
ENDCHAR
STARTCHAR 00C9
ENCODING 201
SWIDTH 540 0
DWIDTH 9 0
BBX 7 14 1 0
BITMAP
18
10
00
FE
FE
E6
E0
FC
FC
E0
E6
E6
FE
FE
ENDCHAR
STARTCHAR 00CA
ENCODING 202
SWIDTH 540 0
DWIDTH 9 0
BBX 7 14 1 0
BITMAP
38
28
00
FE
FE
E6
E0
FC
FC
E0
E6
E6
FE
FE
ENDCHAR
STARTCHAR 00CB
ENCODING 203
SWIDTH 540 0
DWIDTH 9 0
BBX 7 14 1 0
BITMAP
6C
6C
00
FE
FE
E6
E0
FC
FC
E0
E6
E6
FE
FE
ENDCHAR
STARTCHAR 00CC
ENCODING 204
SWIDTH 300 0
DWIDTH 5 0
BBX 3 14 1 0
BITMAP
80
40
00
E0
E0
E0
E0
E0
E0
E0
E0
E0
E0
E0
ENDCHAR
STARTCHAR 00CD
ENCODING 205
SWIDTH 300 0
DWIDTH 5 0
BBX 3 14 1 0
BITMAP
60
40
00
E0
E0
E0
E0
E0
E0
E0
E0
E0
E0
E0
ENDCHAR
STARTCHAR 00CE
ENCODING 206
SWIDTH 300 0
DWIDTH 5 0
BBX 3 14 1 0
BITMAP
E0
A0
00
E0
E0
E0
E0
E0
E0
E0
E0
E0
E0
E0
ENDCHAR
STARTCHAR 00CF
ENCODING 207
SWIDTH 300 0
DWIDTH 5 0
BBX 5 14 0 0
BITMAP
D8
D8
00
70
70
70
70
70
70
70
70
70
70
70
ENDCHAR
STARTCHAR 00D1
ENCODING 209
SWIDTH 600 0
DWIDTH 10 0
BBX 8 14 1 0
BITMAP
3C
20
00
E7
E7
F7
F7
FF
DF
DF
CF
CF
E7
E7
ENDCHAR
STARTCHAR 00D2
ENCODING 210
SWIDTH 540 0
DWIDTH 9 0
BBX 7 14 1 0
BITMAP
30
10
00
7C
FE
EE
C6
C6
C6
C6
C6
EE
FE
7C
ENDCHAR
STARTCHAR 00D3
ENCODING 211
SWIDTH 540 0
DWIDTH 9 0
BBX 7 14 1 0
BITMAP
18
10
00
7C
FE
EE
C6
C6
C6
C6
C6
EE
FE
7C
ENDCHAR
STARTCHAR 00D4
ENCODING 212
SWIDTH 540 0
DWIDTH 9 0
BBX 7 14 1 0
BITMAP
38
28
00
7C
FE
EE
C6
C6
C6
C6
C6
EE
FE
7C
ENDCHAR
STARTCHAR 00D5
ENCODING 213
SWIDTH 540 0
DWIDTH 9 0
BBX 7 14 1 0
BITMAP
20
78
00
7C
FE
EE
C6
C6
C6
C6
C6
EE
FE
7C
ENDCHAR
STARTCHAR 00D6
ENCODING 214
SWIDTH 540 0
DWIDTH 9 0
BBX 7 14 1 0
BITMAP
6C
6C
00
7C
FE
EE
C6
C6
C6
C6
C6
EE
FE
7C
ENDCHAR
STARTCHAR 00D7
ENCODING 215
SWIDTH 540 0
DWIDTH 9 0
BBX 7 8 1 1
BITMAP
02
C6
6C
38
38
6C
C6
82
ENDCHAR
STARTCHAR 00D8
ENCODING 216
SWIDTH 540 0
DWIDTH 9 0
BBX 7 13 1 -1
BITMAP
04
7E
FE
EE
C6
C6
C6
C6
C6
EE
FE
FC
40
ENDCHAR
STARTCHAR 00D9
ENCODING 217
SWIDTH 540 0
DWIDTH 9 0
BBX 9 14 0 0
BITMAP
1800
0800
0000
F780
F780
7300
7300
7300
7300
7300
7300
7300
7F00
3E00
ENDCHAR
STARTCHAR 00DA
ENCODING 218
SWIDTH 540 0
DWIDTH 9 0
BBX 9 14 0 0
BITMAP
0C00
0800
0000
F780
F780
7300
7300
7300
7300
7300
7300
7300
7F00
3E00
ENDCHAR
STARTCHAR 00DB
ENCODING 219
SWIDTH 540 0
DWIDTH 9 0
BBX 9 14 0 0
BITMAP
1C00
1400
0000
F780
F780
7300
7300
7300
7300
7300
7300
7300
7F00
3E00
ENDCHAR
STARTCHAR 00DC
ENCODING 220
SWIDTH 540 0
DWIDTH 9 0
BBX 9 14 0 0
BITMAP
3600
3600
0000
F780
F780
7300
7300
7300
7300
7300
7300
7300
7F00
3E00
ENDCHAR
STARTCHAR 00DF
ENCODING 223
SWIDTH 480 0
DWIDTH 8 0
BBX 7 11 0 0
BITMAP
3C
7E
66
66
6E
6E
66
66
66
EE
EE
ENDCHAR
STARTCHAR 00E0
ENCODING 224
SWIDTH 480 0
DWIDTH 8 0
BBX 8 11 0 0
BITMAP
10
18
3C
7E
66
0E
3E
76
E6
7F
7F
ENDCHAR
STARTCHAR 00E1
ENCODING 225
SWIDTH 480 0
DWIDTH 8 0
BBX 8 11 0 0
BITMAP
0C
08
3C
7E
66
0E
3E
76
E6
7F
7F
ENDCHAR
STARTCHAR 00E2
ENCODING 226
SWIDTH 480 0
DWIDTH 8 0
BBX 8 11 0 0
BITMAP
18
34
3C
7E
66
0E
3E
76
E6
7F
7F
ENDCHAR
STARTCHAR 00E3
ENCODING 227
SWIDTH 480 0
DWIDTH 8 0
BBX 8 12 0 0
BITMAP
10
3C
00
3C
7E
66
0E
3E
76
E6
7F
7F
ENDCHAR
STARTCHAR 00E4
ENCODING 228
SWIDTH 480 0
DWIDTH 8 0
BBX 8 11 0 0
BITMAP
24
24
3C
7E
66
0E
3E
76
E6
7F
7F
ENDCHAR
STARTCHAR 00E5
ENCODING 229
SWIDTH 480 0
DWIDTH 8 0
BBX 8 12 0 0
BITMAP
18
18
18
3C
7E
66
0E
3E
76
E6
7F
7F
ENDCHAR
STARTCHAR 00E6
ENCODING 230
SWIDTH 720 0
DWIDTH 12 0
BBX 11 9 0 0
BITMAP
3FC0
7FE0
6660
0E60
3FE0
7600
E660
7FE0
73E0
ENDCHAR
STARTCHAR 00E7
ENCODING 231
SWIDTH 480 0
DWIDTH 8 0
BBX 6 12 1 -3
BITMAP
78
FC
CC
C0
C0
CC
CC
FC
78
30
30
20
ENDCHAR
STARTCHAR 00E8
ENCODING 232
SWIDTH 480 0
DWIDTH 8 0
BBX 6 11 1 0
BITMAP
60
20
78
FC
CC
CC
FC
C0
CC
FC
78
ENDCHAR
STARTCHAR 00E9
ENCODING 233
SWIDTH 480 0
DWIDTH 8 0
BBX 6 11 1 0
BITMAP
10
30
78
FC
CC
CC
FC
C0
CC
FC
78
ENDCHAR
STARTCHAR 00EA
ENCODING 234
SWIDTH 480 0
DWIDTH 8 0
BBX 6 11 1 0
BITMAP
30
58
78
FC
CC
CC
FC
C0
CC
FC
78
ENDCHAR
STARTCHAR 00EB
ENCODING 235
SWIDTH 480 0
DWIDTH 8 0
BBX 6 12 1 0
BITMAP
48
58
00
78
FC
CC
CC
FC
C0
CC
FC
78
ENDCHAR
STARTCHAR 00EC
ENCODING 236
SWIDTH 240 0
DWIDTH 4 0
BBX 4 11 0 0
BITMAP
C0
40
E0
E0
60
60
60
60
60
F0
F0
ENDCHAR
STARTCHAR 00ED
ENCODING 237
SWIDTH 240 0
DWIDTH 4 0
BBX 4 11 0 0
BITMAP
20
20
00
E0
E0
60
60
60
60
F0
F0
ENDCHAR
STARTCHAR 00EE
ENCODING 238
SWIDTH 240 0
DWIDTH 4 0
BBX 4 11 0 0
BITMAP
60
D0
E0
E0
60
60
60
60
60
F0
F0
ENDCHAR
STARTCHAR 00EF
ENCODING 239
SWIDTH 240 0
DWIDTH 4 0
BBX 4 11 0 0
BITMAP
90
90
00
60
60
60
60
60
60
70
70
ENDCHAR
STARTCHAR 00F1
ENCODING 241
SWIDTH 540 0
DWIDTH 9 0
BBX 8 11 0 1
BITMAP
3C
00
FE
FF
67
67
67
67
67
F7
F3
ENDCHAR
STARTCHAR 00F2
ENCODING 242
SWIDTH 480 0
DWIDTH 8 0
BBX 6 11 1 0
BITMAP
60
20
78
FC
CC
CC
CC
CC
CC
FC
78
ENDCHAR
STARTCHAR 00F3
ENCODING 243
SWIDTH 480 0
DWIDTH 8 0
BBX 6 11 1 0
BITMAP
10
30
78
FC
CC
CC
CC
CC
CC
FC
78
ENDCHAR
STARTCHAR 00F4
ENCODING 244
SWIDTH 480 0
DWIDTH 8 0
BBX 6 11 1 0
BITMAP
30
68
78
FC
CC
CC
CC
CC
CC
FC
78
ENDCHAR
STARTCHAR 00F5
ENCODING 245
SWIDTH 480 0
DWIDTH 8 0
BBX 6 11 1 1
BITMAP
78
00
78
FC
CC
CC
CC
CC
CC
FC
78
ENDCHAR
STARTCHAR 00F6
ENCODING 246
SWIDTH 480 0
DWIDTH 8 0
BBX 6 11 1 0
BITMAP
58
58
78
FC
CC
CC
CC
CC
CC
FC
78
ENDCHAR
STARTCHAR 00F7
ENCODING 247
SWIDTH 540 0
DWIDTH 9 0
BBX 7 8 1 1
BITMAP
38
18
00
FE
FE
00
18
38
ENDCHAR
STARTCHAR 00F8
ENCODING 248
SWIDTH 480 0
DWIDTH 8 0
BBX 6 9 1 0
BITMAP
7C
FC
CC
CC
CC
CC
CC
FC
F8
ENDCHAR
STARTCHAR 00F9
ENCODING 249
SWIDTH 540 0
DWIDTH 9 0
BBX 8 11 0 0
BITMAP
10
18
E7
E7
67
67
67
67
67
7F
7F
ENDCHAR
STARTCHAR 00FA
ENCODING 250
SWIDTH 540 0
DWIDTH 9 0
BBX 8 11 0 0
BITMAP
0C
08
E7
E7
67
67
67
67
67
7F
7F
ENDCHAR
STARTCHAR 00FB
ENCODING 251
SWIDTH 540 0
DWIDTH 9 0
BBX 8 11 0 0
BITMAP
18
34
E7
E7
67
67
67
67
67
7F
7F
ENDCHAR
STARTCHAR 00FC
ENCODING 252
SWIDTH 540 0
DWIDTH 9 0
BBX 8 11 0 0
BITMAP
34
24
E7
E7
67
67
67
67
67
7F
7F
ENDCHAR
STARTCHAR 00FF
ENCODING 255
SWIDTH 480 0
DWIDTH 8 0
BBX 7 14 0 -3
BITMAP
2C
2C
EE
EE
66
66
7C
3C
3C
3C
38
18
38
30
ENDCHAR
STARTCHAR 0131
ENCODING 305
SWIDTH 240 0
DWIDTH 4 0
BBX 4 9 0 0
BITMAP
E0
E0
60
60
60
60
60
F0
F0
ENDCHAR
STARTCHAR 0152
ENCODING 338
SWIDTH 780 0
DWIDTH 13 0
BBX 12 11 1 0
BITMAP
7FF0
FFF0
E670
C600
C7C0
C7C0
C600
C670
E670
FFF0
7FF0
ENDCHAR
STARTCHAR 0153
ENCODING 339
SWIDTH 720 0
DWIDTH 12 0
BBX 10 9 1 0
BITMAP
7F80
FFC0
CCC0
CCC0
CFC0
CC00
CCC0
FFC0
7FC0
ENDCHAR
STARTCHAR 0178
ENCODING 376
SWIDTH 540 0
DWIDTH 9 0
BBX 8 14 0 0
BITMAP
34
34
00
F7
F7
77
76
3E
3C
1C
1C
1C
3C
3C
ENDCHAR
STARTCHAR 0192
ENCODING 402
SWIDTH 480 0
DWIDTH 8 0
BBX 7 14 0 -2
BITMAP
06
0E
1C
1C
3E
3E
18
18
38
38
38
30
70
E0
ENDCHAR
STARTCHAR 02C6
ENCODING 710
SWIDTH 360 0
DWIDTH 6 0
BBX 4 2 1 9
BITMAP
60
D0
ENDCHAR
STARTCHAR 02DA
ENCODING 730
SWIDTH 300 0
DWIDTH 5 0
BBX 3 3 1 9
BITMAP
40
A0
E0
ENDCHAR
STARTCHAR 02DC
ENCODING 732
SWIDTH 420 0
DWIDTH 7 0
BBX 5 2 1 9
BITMAP
F8
90
ENDCHAR
STARTCHAR 03A9
ENCODING 937
SWIDTH 720 0
DWIDTH 12 0
BBX 11 12 0 0
BITMAP
1F00
30C0
60C0
60E0
6060
6060
60E0
60C0
30C0
9980
8920
F9E0
ENDCHAR
STARTCHAR 03BC
ENCODING 956
SWIDTH 540 0
DWIDTH 9 0
BBX 7 11 1 -3
BITMAP
8C
8C
8C
8C
8C
8C
CC
F6
80
80
80
ENDCHAR
STARTCHAR 03C0
ENCODING 960
SWIDTH 480 0
DWIDTH 8 0
BBX 6 8 1 0
BITMAP
FC
FC
48
48
48
48
48
CC
ENDCHAR
STARTCHAR 2013
ENCODING 8211
SWIDTH 600 0
DWIDTH 10 0
BBX 8 2 1 3
BITMAP
FF
FF
ENDCHAR
STARTCHAR 2014
ENCODING 8212
SWIDTH 1080 0
DWIDTH 18 0
BBX 16 2 1 3
BITMAP
FFFF
FFFF
ENDCHAR
STARTCHAR 2018
ENCODING 8216
SWIDTH 240 0
DWIDTH 4 0
BBX 2 3 1 8
BITMAP
40
C0
C0
ENDCHAR
STARTCHAR 2019
ENCODING 8217
SWIDTH 240 0
DWIDTH 4 0
BBX 2 3 1 8
BITMAP
C0
C0
40
ENDCHAR
STARTCHAR 201C
ENCODING 8220
SWIDTH 420 0
DWIDTH 7 0
BBX 5 3 1 8
BITMAP
50
D0
D8
ENDCHAR
STARTCHAR 201D
ENCODING 8221
SWIDTH 420 0
DWIDTH 7 0
BBX 5 3 1 8
BITMAP
D0
D8
50
ENDCHAR
STARTCHAR 201E
ENCODING 8222
SWIDTH 420 0
DWIDTH 7 0
BBX 5 3 1 -1
BITMAP
D8
D8
90
ENDCHAR
STARTCHAR 2022
ENCODING 8226
SWIDTH 300 0
DWIDTH 5 0
BBX 3 4 1 4
BITMAP
40
E0
E0
E0
ENDCHAR
STARTCHAR 2026
ENCODING 8230
SWIDTH 1020 0
DWIDTH 17 0
BBX 13 2 2 0
BITMAP
C618
C618
ENDCHAR
STARTCHAR 2030
ENCODING 8240
SWIDTH 1020 0
DWIDTH 17 0
BBX 16 11 1 0
BITMAP
F180
9300
9300
9600
F400
0C00
1BDE
1A5A
3253
225A
63DE
ENDCHAR
STARTCHAR 2039
ENCODING 8249
SWIDTH 240 0
DWIDTH 4 0
BBX 2 4 1 2
BITMAP
C0
80
80
C0
ENDCHAR
STARTCHAR 203A
ENCODING 8250
SWIDTH 240 0
DWIDTH 4 0
BBX 2 4 1 2
BITMAP
80
40
C0
80
ENDCHAR
STARTCHAR 2044
ENCODING 8260
SWIDTH 360 0
DWIDTH 6 0
BBX 8 11 -1 0
BITMAP
03
06
06
0C
08
18
30
30
60
60
C0
ENDCHAR
STARTCHAR 20AC
ENCODING 8364
SWIDTH 540 0
DWIDTH 9 0
BBX 9 11 0 0
BITMAP
1F00
3F80
7380
7000
FC00
7000
FC00
7380
7380
3F80
1F00
ENDCHAR
STARTCHAR 2113
ENCODING 8467
SWIDTH 300 0
DWIDTH 5 0
BBX 5 12 0 0
BITMAP
38
28
68
68
70
70
60
60
E0
60
68
38
ENDCHAR
STARTCHAR 2126
ENCODING 8486
SWIDTH 720 0
DWIDTH 12 0
BBX 11 12 0 0
BITMAP
1F00
30C0
6060
6060
4060
4060
4060
6060
20C0
9180
8920
F9E0
ENDCHAR
STARTCHAR 212E
ENCODING 8494
SWIDTH 600 0
DWIDTH 10 0
BBX 10 10 0 0
BITMAP
1E00
6180
4080
40C0
C0C0
FF00
4000
4000
4080
3F00
ENDCHAR
STARTCHAR 2202
ENCODING 8706
SWIDTH 540 0
DWIDTH 9 0
BBX 7 12 1 0
BITMAP
3C
46
02
02
3A
66
C2
C4
C4
C8
C8
70
ENDCHAR
STARTCHAR 2206
ENCODING 8710
SWIDTH 600 0
DWIDTH 10 0
BBX 8 12 1 0
BITMAP
18
18
38
3C
2C
4C
4E
46
86
86
83
FF
ENDCHAR
STARTCHAR 220F
ENCODING 8719
SWIDTH 660 0
DWIDTH 11 0
BBX 9 14 1 -2
BITMAP
FF80
E300
6300
6300
6300
6300
6300
6300
6300
6300
6300
6300
6300
F780
ENDCHAR
STARTCHAR 2211
ENCODING 8721
SWIDTH 540 0
DWIDTH 9 0
BBX 7 14 1 -2
BITMAP
FE
C2
60
60
30
30
18
10
20
20
40
42
FE
FE
ENDCHAR
STARTCHAR 2212
ENCODING 8722
SWIDTH 540 0
DWIDTH 9 0
BBX 7 2 1 4
BITMAP
FE
FE
ENDCHAR
STARTCHAR 2215
ENCODING 8725
SWIDTH 360 0
DWIDTH 6 0
BBX 8 11 -1 0
BITMAP
03
06
06
0C
08
18
30
30
60
60
C0
ENDCHAR
STARTCHAR 2219
ENCODING 8729
SWIDTH 240 0
DWIDTH 4 0
BBX 2 2 1 5
BITMAP
C0
C0
ENDCHAR
STARTCHAR 221A
ENCODING 8730
SWIDTH 300 0
DWIDTH 5 0
BBX 5 12 0 0
BITMAP
08
08
08
08
08
08
C8
50
30
30
30
10
ENDCHAR
STARTCHAR 221E
ENCODING 8734
SWIDTH 600 0
DWIDTH 10 0
BBX 10 5 0 2
BITMAP
7380
8C40
8C40
8C40
7380
ENDCHAR
STARTCHAR 222B
ENCODING 8747
SWIDTH 300 0
DWIDTH 5 0
BBX 4 16 1 -4
BITMAP
30
40
40
40
40
40
40
40
40
40
40
40
40
40
40
80
ENDCHAR
STARTCHAR 2248
ENCODING 8776
SWIDTH 540 0
DWIDTH 9 0
BBX 9 7 0 2
BITMAP
7900
FF80
4600
0000
3100
7F80
4F00
ENDCHAR
STARTCHAR 2260
ENCODING 8800
SWIDTH 540 0
DWIDTH 9 0
BBX 7 10 1 0
BITMAP
04
0C
FE
FE
18
30
FE
FE
60
60
ENDCHAR
STARTCHAR 2264
ENCODING 8804
SWIDTH 540 0
DWIDTH 9 0
BBX 7 10 1 0
BITMAP
02
1E
7C
E0
F0
3C
0E
00
FE
FE
ENDCHAR
STARTCHAR 2265
ENCODING 8805
SWIDTH 540 0
DWIDTH 9 0
BBX 7 10 1 0
BITMAP
80
F0
3C
0E
1E
78
E0
00
FE
FE
ENDCHAR
STARTCHAR 25CA
ENCODING 9674
SWIDTH 420 0
DWIDTH 7 0
BBX 6 12 0 0
BITMAP
10
30
28
48
44
84
84
44
48
28
30
10
ENDCHAR
STARTCHAR FB01
ENCODING 64257
SWIDTH 480 0
DWIDTH 8 0
BBX 8 12 0 0
BITMAP
36
77
62
FF
FF
67
67
67
67
67
F7
F7
ENDCHAR
STARTCHAR FB02
ENCODING 64258
SWIDTH 480 0
DWIDTH 8 0
BBX 8 11 0 0
BITMAP
3F
7F
F7
F7
67
67
67
67
67
F7
F7
ENDCHAR
ENDFONT
